<?xml version="1.0" standalone="no"?>
<!DOCTYPE svg PUBLIC "-//W3C//DTD SVG 20010904//EN"
 "http://www.w3.org/TR/2001/REC-SVG-20010904/DTD/svg10.dtd">
<svg version="1.0" xmlns="http://www.w3.org/2000/svg"
 width="500.000000pt" height="500.000000pt" viewBox="0 0 500.000000 500.000000"
 preserveAspectRatio="xMidYMid meet">

<g transform="translate(0.000000,500.000000) scale(0.100000,-0.100000)"
fill="#000000" stroke="none">
<path d="M0 2500 l0 -2500 2500 0 2500 0 0 2500 0 2500 -2500 0 -2500 0 0
-2500z m3755 1693 c-45 -108 -48 -121 -48 -208 0 -89 5 -109 60 -232 4 -10
-121 -13 -564 -15 l-568 -3 -46 -27 c-165 -97 -149 -342 27 -420 22 -10 171
-14 599 -19 538 -5 573 -6 631 -26 196 -66 346 -194 429 -368 56 -117 69 -177
69 -310 0 -172 -42 -296 -147 -434 -82 -107 -250 -215 -392 -252 -39 -10 -322
-14 -1312 -16 -695 -2 -1263 0 -1263 4 0 5 6 17 14 28 56 83 74 257 36 365
-11 30 -19 58 -20 62 0 4 550 9 1223 10 1361 3 1257 -2 1330 73 38 39 67 108
67 160 0 91 -78 202 -156 224 -25 7 -220 11 -554 11 -545 1 -604 5 -721 49
-130 49 -279 177 -352 301 -123 211 -121 506 5 717 47 80 161 192 243 240 76
45 165 78 247 92 29 5 304 9 612 10 528 1 558 0 551 -16z m-1794 -2930 c11
-13 15 -81 17 -320 l3 -303 65 0 64 0 0 -35 0 -35 -175 0 -175 0 0 35 0 35 70
0 70 0 0 286 0 286 -50 -4 -50 -3 0 32 c0 36 8 40 91 42 41 1 60 -3 70 -16z
m-1001 -37 c70 -36 110 -91 124 -168 l7 -38 -39 0 c-38 0 -40 2 -50 43 -12 46
-51 90 -95 106 -42 16 -163 14 -197 -4 -60 -31 -67 -90 -17 -139 24 -25 61
-42 147 -71 139 -46 196 -73 235 -114 24 -26 30 -41 33 -94 5 -78 -20 -121
-93 -157 -45 -22 -62 -25 -165 -25 -103 0 -121 3 -171 26 -32 15 -66 40 -79
58 -24 35 -50 110 -50 148 0 20 5 23 40 23 37 0 40 -2 40 -28 0 -44 41 -114
79 -136 50 -29 195 -35 256 -11 51 19 67 41 67 91 0 72 -43 103 -201 148 -198
57 -267 122 -246 233 12 64 47 99 125 124 45 15 211 5 250 -15z m1630 0 c70
-36 110 -91 124 -168 l7 -38 -39 0 c-38 0 -40 2 -50 43 -12 46 -51 90 -95 106
-42 16 -163 14 -197 -4 -60 -31 -67 -90 -17 -139 24 -25 61 -42 147 -71 139
-46 196 -73 235 -114 24 -26 30 -41 33 -94 5 -78 -20 -121 -93 -157 -45 -22
-62 -25 -165 -25 -103 0 -121 3 -171 26 -32 15 -66 40 -79 58 -24 35 -50 110
-50 148 0 20 5 23 40 23 37 0 40 -2 40 -28 0 -44 41 -114 79 -136 50 -29 195
-35 256 -11 51 19 67 41 67 91 0 72 -43 103 -201 148 -198 57 -267 122 -246
233 12 64 47 99 125 124 45 15 211 5 250 -15z m1190 -195 c20 -10 44 -36 57
-61 21 -40 23 -55 23 -222 l0 -178 -34 0 -34 0 -4 168 c-4 170 -10 201 -47
229 -42 31 -124 22 -176 -19 -52 -41 -65 -88 -65 -240 l0 -138 -40 0 -40 0 0
235 0 235 41 0 42 0 -7 -65 c-6 -63 5 -91 18 -42 8 33 43 76 80 98 42 26 139
26 186 0z m550 -5 c49 -25 95 -83 105 -133 7 -33 6 -33 -33 -33 -36 0 -41 3
-51 32 -43 123 -214 126 -277 5 -21 -40 -20 -139 3 -184 26 -54 63 -76 130
-80 73 -5 118 20 140 77 15 37 19 40 55 40 44 0 46 -7 19 -65 -24 -52 -66 -91
-120 -110 -88 -31 -176 -14 -246 47 -59 52 -78 105 -74 201 5 99 41 159 118
199 71 37 164 39 231 4z m-3040 -123 c1 -173 10 -220 46 -251 24 -21 36 -24
84 -20 69 5 110 32 139 91 18 37 21 62 21 180 l0 137 40 0 40 0 0 -235 0 -235
-41 0 -42 0 7 72 c7 79 5 80 -27 17 -66 -132 -268 -131 -325 1 -11 25 -17 84
-20 208 l-5 172 42 0 41 0 0 -137z m1698 -46 c40 -100 73 -190 72 -199 0 -10
5 -18 10 -18 6 0 10 6 10 13 0 7 33 96 74 197 l74 185 41 3 c23 2 41 0 41 -5
0 -4 -45 -110 -100 -235 -99 -225 -100 -229 -100 -306 0 -47 -5 -83 -12 -90
-8 -8 -50 -12 -125 -12 l-113 0 0 36 0 37 85 -5 85 -4 0 63 c0 58 -8 81 -96
281 -53 119 -98 223 -101 230 -4 8 8 12 38 12 l44 0 73 -183z"/>
</g>
</svg>
